<?xml version="1.0" encoding="UTF-8" standalone="no"?>
<svg
   xmlns:dc="http://purl.org/dc/elements/1.1/"
   xmlns:cc="http://creativecommons.org/ns#"
   xmlns:rdf="http://www.w3.org/1999/02/22-rdf-syntax-ns#"
   xmlns:svg="http://www.w3.org/2000/svg"
   xmlns="http://www.w3.org/2000/svg"
   xmlns:sodipodi="http://sodipodi.sourceforge.net/DTD/sodipodi-0.dtd"
   xmlns:inkscape="http://www.inkscape.org/namespaces/inkscape"
   width="273.80127"
   height="500.74579"
   id="svg2"
   sodipodi:version="0.32"
   inkscape:version="0.46"
   version="1.0"
   sodipodi:docname="lego_worker_minifig_std_004_col.svg"
   inkscape:output_extension="org.inkscape.output.svg.inkscape">
  <defs
     id="defs4">
    <inkscape:perspective
       sodipodi:type="inkscape:persp3d"
       inkscape:vp_x="0 : 526.18109 : 1"
       inkscape:vp_y="0 : 1000 : 0"
       inkscape:vp_z="744.09448 : 526.18109 : 1"
       inkscape:persp3d-origin="372.04724 : 350.78739 : 1"
       id="perspective10" />
    <inkscape:perspective
       id="perspective2464"
       inkscape:persp3d-origin="372.04724 : 350.78739 : 1"
       inkscape:vp_z="744.09448 : 526.18109 : 1"
       inkscape:vp_y="0 : 1000 : 0"
       inkscape:vp_x="0 : 526.18109 : 1"
       sodipodi:type="inkscape:persp3d" />
    <inkscape:perspective
       sodipodi:type="inkscape:persp3d"
       inkscape:vp_x="0 : 526.18109 : 1"
       inkscape:vp_y="0 : 1000 : 0"
       inkscape:vp_z="744.09448 : 526.18109 : 1"
       inkscape:persp3d-origin="372.04724 : 350.78739 : 1"
       id="perspective5765" />
    <inkscape:perspective
       id="perspective5767"
       inkscape:persp3d-origin="372.04724 : 350.78739 : 1"
       inkscape:vp_z="744.09448 : 526.18109 : 1"
       inkscape:vp_y="0 : 1000 : 0"
       inkscape:vp_x="0 : 526.18109 : 1"
       sodipodi:type="inkscape:persp3d" />
    <inkscape:perspective
       id="perspective3917"
       inkscape:persp3d-origin="372.04724 : 350.78739 : 1"
       inkscape:vp_z="744.09448 : 526.18109 : 1"
       inkscape:vp_y="0 : 1000 : 0"
       inkscape:vp_x="0 : 526.18109 : 1"
       sodipodi:type="inkscape:persp3d" />
    <inkscape:perspective
       id="perspective4088"
       inkscape:persp3d-origin="372.04724 : 350.78739 : 1"
       inkscape:vp_z="744.09448 : 526.18109 : 1"
       inkscape:vp_y="0 : 1000 : 0"
       inkscape:vp_x="0 : 526.18109 : 1"
       sodipodi:type="inkscape:persp3d" />
    <inkscape:perspective
       sodipodi:type="inkscape:persp3d"
       inkscape:vp_x="0 : 526.18109 : 1"
       inkscape:vp_y="0 : 1000 : 0"
       inkscape:vp_z="744.09448 : 526.18109 : 1"
       inkscape:persp3d-origin="372.04724 : 350.78739 : 1"
       id="perspective4297" />
    <inkscape:perspective
       id="perspective4295"
       inkscape:persp3d-origin="372.04724 : 350.78739 : 1"
       inkscape:vp_z="744.09448 : 526.18109 : 1"
       inkscape:vp_y="0 : 1000 : 0"
       inkscape:vp_x="0 : 526.18109 : 1"
       sodipodi:type="inkscape:persp3d" />
    <inkscape:perspective
       id="perspective4729"
       inkscape:persp3d-origin="372.04724 : 350.78739 : 1"
       inkscape:vp_z="744.09448 : 526.18109 : 1"
       inkscape:vp_y="0 : 1000 : 0"
       inkscape:vp_x="0 : 526.18109 : 1"
       sodipodi:type="inkscape:persp3d" />
    <inkscape:perspective
       sodipodi:type="inkscape:persp3d"
       inkscape:vp_x="0 : 526.18109 : 1"
       inkscape:vp_y="0 : 1000 : 0"
       inkscape:vp_z="744.09448 : 526.18109 : 1"
       inkscape:persp3d-origin="372.04724 : 350.78739 : 1"
       id="perspective3745" />
    <inkscape:perspective
       sodipodi:type="inkscape:persp3d"
       inkscape:vp_x="0 : 526.18109 : 1"
       inkscape:vp_y="0 : 1000 : 0"
       inkscape:vp_z="744.09448 : 526.18109 : 1"
       inkscape:persp3d-origin="372.04724 : 350.78739 : 1"
       id="perspective6773" />
    <inkscape:perspective
       id="perspective6771"
       inkscape:persp3d-origin="372.04724 : 350.78739 : 1"
       inkscape:vp_z="744.09448 : 526.18109 : 1"
       inkscape:vp_y="0 : 1000 : 0"
       inkscape:vp_x="0 : 526.18109 : 1"
       sodipodi:type="inkscape:persp3d" />
  </defs>
  <sodipodi:namedview
     id="base"
     pagecolor="#ffffff"
     bordercolor="#666666"
     borderopacity="1.0"
     gridtolerance="10000"
     guidetolerance="10"
     objecttolerance="10"
     inkscape:pageopacity="0.0"
     inkscape:pageshadow="2"
     inkscape:zoom="0.51218108"
     inkscape:cx="-169.3677"
     inkscape:cy="470.67045"
     inkscape:document-units="px"
     inkscape:current-layer="layer3"
     showgrid="false"
     inkscape:window-width="1280"
     inkscape:window-height="744"
     inkscape:window-x="0"
     inkscape:window-y="22" />
  <g
     inkscape:groupmode="layer"
     id="layer3"
     inkscape:label="naj"
     style="opacity:0.98000004"
     transform="translate(-193.6991,-285.56073)">
    <g
       id="g9800"
       transform="matrix(0.5,0,0,0.5,165.29987,267.96681)">
      <path
         sodipodi:nodetypes="ccccc"
         id="path3324"
         d="M 254.28571,365.21933 L 152.85714,506.6479 L 213.9703,558.44857 L 233.57144,527.36219 L 254.28571,365.21933 z"
         style="fill:#ffffff;fill-opacity:1;fill-rule:evenodd;stroke:#000000;stroke-width:5;stroke-linecap:round;stroke-linejoin:round;stroke-miterlimit:4;stroke-dasharray:none;stroke-opacity:1" />
      <path
         id="path3335"
         d="M 108.4375,530.84375 C 91.930224,531.29742 74.015286,546.06113 64.875,568.4375 C 55.740553,590.79955 58.178471,613.88605 69.625,625.78125 L 75.9375,613.625 C 68.616815,604.44581 67.350663,588.29123 73.75,572.625 C 80.489293,556.12652 93.691235,545.2105 105.875,544.75 C 108.68664,544.64373 111.44813,545.08833 114.0625,546.15625 C 128.00582,551.85181 132.57576,572.97544 124.28125,593.28125 C 119.18984,605.74551 110.42237,615.00758 101.1875,619 L 100.21875,631.625 C 113.2568,626.65681 125.80848,613.8103 132.96875,596.28125 C 144.15113,568.90564 137.98541,540.4598 119.1875,532.78125 C 116.25033,531.58147 113.16736,530.93486 110.03125,530.84375 C 109.50203,530.82838 108.96999,530.82912 108.4375,530.84375 z"
         style="opacity:1;fill:#ffff00;fill-opacity:1;fill-rule:nonzero;stroke:#000000;stroke-width:5;stroke-linecap:round;stroke-linejoin:round;marker:none;marker-start:none;marker-mid:none;marker-end:none;stroke-miterlimit:4;stroke-dasharray:none;stroke-dashoffset:0;stroke-opacity:1;visibility:visible;display:inline;overflow:visible;enable-background:accumulate" />
      <path
         sodipodi:nodetypes="ccsscccccc"
         id="path3337"
         d="M 439.28125,654.5 L 438.9375,656 C 439.25865,656.11644 439.58818,656.21382 439.90625,656.34375 C 458.70418,664.02232 464.86988,692.46814 453.6875,719.84375 C 445.59373,739.6581 428.84488,754.92102 414.05803,758.14732 L 463.5625,778.0625 C 488.80696,778.43558 511.80464,773.17157 525.71875,745.21875 C 530.86487,728.39934 532.57104,710.81555 520.71875,690.21875 C 494.6867,690.27575 480.02271,677.36436 467.15625,662.375 L 439.28125,654.5 z"
         style="fill:#ffffff;fill-opacity:1;fill-rule:evenodd;stroke:#000000;stroke-width:5;stroke-linecap:round;stroke-linejoin:round;stroke-miterlimit:4;stroke-dasharray:none;stroke-opacity:1" />
      <path
         sodipodi:nodetypes="cccssc"
         id="path3342"
         d="M 453.57142,703.07648 C 453.83212,721.60418 449.05112,734.80082 438.00382,745.70907 C 427.31604,746.86489 409.03159,752.02139 401.37305,752.02139 C 388.20759,742.48278 380.88378,731.46726 379.99999,703.07648 C 379.07989,673.51937 396.47999,649.50505 416.78571,649.50505 C 437.09142,649.50505 453.57142,673.50505 453.57142,703.07648 z"
         style="fill:#ffffff;fill-opacity:1;fill-rule:nonzero;stroke:#000000;stroke-width:6.74083138;stroke-linecap:round;stroke-linejoin:round;marker:none;marker-start:none;marker-mid:none;marker-end:none;stroke-miterlimit:4;stroke-dasharray:none;stroke-dashoffset:0;stroke-opacity:1;visibility:visible;display:inline;overflow:visible;enable-background:accumulate"
         transform="matrix(0.6866698,0.2804908,-0.2804908,0.6866698,330.74871,106.12712)" />
      <path
         sodipodi:nodetypes="cccssc"
         id="path3350"
         d="M 453.57142,703.07648 C 453.57142,721.7665 446.9883,738.23094 437.0169,747.81713 C 426.00696,750.84323 415.65036,753.40239 406.05027,755.83204 C 394.79713,748.89223 381.43907,731.54469 379.99999,703.07648 C 378.50704,673.54276 396.47999,649.50505 416.78571,649.50505 C 437.09142,649.50505 453.57142,673.50505 453.57142,703.07648 z"
         style="fill:#ffff00;fill-opacity:1;fill-rule:nonzero;stroke:#000000;stroke-width:6.74083138;stroke-linecap:round;stroke-linejoin:round;marker:none;marker-start:none;marker-mid:none;marker-end:none;stroke-miterlimit:4;stroke-dasharray:none;stroke-dashoffset:0;stroke-opacity:1;visibility:visible;display:inline;overflow:visible;enable-background:accumulate"
         transform="matrix(0.6866698,0.2804908,-0.2804908,0.6866698,10.034424,-16.730023)" />
      <path
         sodipodi:nodetypes="ccccc"
         id="path3355"
         d="M 396.42857,735.21932 L 390.71428,749.86218 L 416.07142,755.21932 L 420.71429,741.6479 L 396.42857,735.21932 z"
         style="fill:#ffffff;fill-opacity:1;fill-rule:evenodd;stroke:#000000;stroke-width:5;stroke-linecap:round;stroke-linejoin:round;stroke-miterlimit:4;stroke-dasharray:none;stroke-opacity:1" />
      <path
         sodipodi:nodetypes="ccssccccccccccc"
         id="path3357"
         d="M 118.5625,530.9375 L 118.25,532.4375 C 118.56191,532.55099 118.8785,532.65503 119.1875,532.78125 C 137.98541,540.4598 144.15113,568.90564 132.96875,596.28125 C 125.26337,615.1448 111.32962,628.59327 97.25,632.625 L 101.44196,632.70536 L 145.71875,652.375 C 178.17408,653.3162 196.08021,640.9117 205.71875,620.9375 C 213.27643,600.18789 210.76983,581.44038 199.28125,564.5 L 198.15625,563.90625 L 197.84375,564.5 C 170.24981,564.81861 163.61048,547.19398 147.84375,537.375 L 148.15625,536.84375 L 147.84375,536.65625 L 118.5625,530.9375 z"
         style="fill:#ffff00;fill-opacity:1;fill-rule:evenodd;stroke:#000000;stroke-width:5;stroke-linecap:round;stroke-linejoin:round;stroke-miterlimit:4;stroke-dasharray:none;stroke-opacity:1" />
      <path
         sodipodi:nodetypes="ccccc"
         id="path3359"
         d="M 162.14286,515.21933 L 147.85714,537.36218 C 163.62388,547.18116 170.2632,564.82365 197.85714,564.50504 L 205.71429,550.93361 L 162.14286,515.21933 z"
         style="fill:#ffff00;fill-opacity:1;fill-rule:evenodd;stroke:#000000;stroke-width:5;stroke-linecap:round;stroke-linejoin:round;stroke-miterlimit:4;stroke-dasharray:none;stroke-opacity:1" />
      <path
         id="path3374"
         d="M 76.428572,614.86218 L 70.357143,627.00504 L 100.71429,631.6479 L 101.42857,619.1479 L 76.428572,614.86218 z"
         style="fill:#ffff00;fill-opacity:1;fill-rule:evenodd;stroke:#000000;stroke-width:5;stroke-linecap:round;stroke-linejoin:round;stroke-miterlimit:4;stroke-dasharray:none;stroke-opacity:1" />
      <path
         style="fill:#ffffff;fill-opacity:1;fill-rule:evenodd;stroke:#000000;stroke-width:5;stroke-linecap:round;stroke-linejoin:round;stroke-miterlimit:4;stroke-dasharray:none;stroke-opacity:1"
         d="M 439.28125,654.5 L 438.9375,656 C 439.25865,656.11644 439.58818,656.21382 439.90625,656.34375 C 458.70418,664.02232 464.86988,692.46814 453.6875,719.84375 C 445.59373,739.6581 428.84488,754.92102 414.05803,758.14732 L 463.5625,778.0625 C 488.80696,778.43558 511.80464,773.17157 525.71875,745.21875 C 530.86487,728.39934 532.57104,710.81555 520.71875,690.21875 C 494.6867,690.27575 480.02271,677.36436 467.15625,662.375 L 439.28125,654.5 z"
         id="path3443"
         sodipodi:nodetypes="ccsscccccc" />
      <path
         sodipodi:nodetypes="ccsscccccc"
         id="path3448"
         d="M 439.28125,654.5 L 438.9375,656 C 439.25865,656.11644 439.58818,656.21382 439.90625,656.34375 C 458.70418,664.02232 464.86988,692.46814 453.6875,719.84375 C 445.59373,739.6581 428.84488,754.92102 414.05803,758.14732 L 463.5625,778.0625 C 488.80696,778.43558 511.80464,773.17157 525.71875,745.21875 C 530.86487,728.39934 532.57104,710.81555 520.71875,690.21875 C 494.6867,690.27575 480.02271,677.36436 467.15625,662.375 L 439.28125,654.5 z"
         style="fill:#ffffff;fill-opacity:1;fill-rule:evenodd;stroke:#000000;stroke-width:5;stroke-linecap:round;stroke-linejoin:round;stroke-miterlimit:4;stroke-dasharray:none;stroke-opacity:1" />
      <path
         sodipodi:nodetypes="csscccccc"
         id="path3274"
         d="M 494.26046,841.2403 C 459.18326,813.62946 464.40752,776.85803 466.98633,760.4281 C 469.65951,743.39693 482.2164,711.58759 525.57518,699.81894 C 565.60491,688.95388 581.72691,725.04799 588.20464,762.4484 L 585.17419,987.71242 L 462.94573,1033.1693 L 462.94573,968.51952 L 492.24015,954.37739 L 494.26046,841.2403 z"
         style="fill:#0000ff;fill-opacity:1;fill-rule:evenodd;stroke:#000000;stroke-width:5;stroke-linecap:round;stroke-linejoin:round;stroke-miterlimit:4;stroke-dasharray:none;stroke-opacity:1" />
      <path
         sodipodi:nodetypes="ccccccscccc"
         id="path2474"
         d="M 264.84685,160.05764 C 277.97146,130.14956 284.95109,99.124214 326.27542,74.343354 L 371.46972,54.444879 C 395.75742,37.464505 423.62562,37.701819 452.01942,54.026461 L 486.27542,70.05764 C 509.03272,86.184284 529.85332,95.993384 546.27542,150.05764 C 559.49992,173.72575 567.56142,193.15123 559.47922,205.18019 C 544.84492,226.96068 530.72252,234.88792 513.41832,242.91478 C 445.32302,261.90789 377.22782,270.81981 309.13256,262.91478 C 275.97272,256.20047 236.91618,256.99103 231.9897,214.34335 C 225.11279,194.62727 242.38785,177.10682 264.84685,160.05764 z"
         style="fill:#ff0000;fill-opacity:1;fill-rule:evenodd;stroke:#000000;stroke-width:5;stroke-linecap:round;stroke-linejoin:round;stroke-miterlimit:4;stroke-dasharray:none;stroke-opacity:1" />
      <path
         id="path3248"
         d="M 525.28125,236.28125 C 522.1896,237.89997 519.01588,239.40807 515.71875,240.9375 C 447.62351,259.93061 379.53274,268.84253 311.4375,260.9375 C 304.98423,259.63082 298.29241,258.61369 291.6875,257.5 L 290.9375,309.90625 C 300.31566,330.31857 312.20729,349.60874 345.46875,359.40625 C 398.90137,366.57889 452.26644,372.5945 503.0625,340.21875 C 538.93998,303.3877 520.51861,270.71884 525.28125,236.28125 z"
         style="fill:#ffff00;fill-opacity:1;fill-rule:evenodd;stroke:#000000;stroke-width:5;stroke-linecap:round;stroke-linejoin:round;stroke-miterlimit:4;stroke-dasharray:none;stroke-opacity:1" />
      <path
         id="path3253"
         d="M 482.34375,351.3125 C 437.84979,370.92944 391.68214,365.6098 345.46875,359.40625 C 342.4529,358.5179 339.61603,357.53819 336.9375,356.5 L 337.40625,370.5 C 388.06139,392.94636 437.57069,397.18347 482.84375,368.5 L 482.34375,351.3125 z"
         style="fill:#ffff00;fill-opacity:1;fill-rule:evenodd;stroke:#000000;stroke-width:5;stroke-linecap:round;stroke-linejoin:round;stroke-miterlimit:4;stroke-dasharray:none;stroke-opacity:1" />
      <path
         id="path3258"
         d="M 303.65625,332.0625 L 259.59375,350.3125 L 436.375,421.03125 L 561.65625,369.5 L 495.0625,344.96875 C 490.8348,347.321 486.60487,349.43382 482.34375,351.3125 L 482.84375,368.5 C 437.57069,397.18347 388.06139,392.94636 337.40625,370.5 L 336.9375,356.5 C 321.22281,350.40903 311.08358,341.83256 303.65625,332.0625 z M 467.5,356.9375 C 466.58131,357.23224 465.66993,357.53625 464.75,357.8125 C 465.67168,357.53576 466.57956,357.23281 467.5,356.9375 z"
         style="fill:#ffffff;fill-opacity:1;fill-rule:evenodd;stroke:#000000;stroke-width:5;stroke-linecap:round;stroke-linejoin:round;stroke-miterlimit:4;stroke-dasharray:none;stroke-opacity:1" />
      <path
         id="path3266"
         d="M 256.57875,349.29601 L 223.24371,603.85445 L 467.70063,696.78849 L 435.37575,417.98638 L 256.57875,349.29601 z"
         style="fill:#ffffff;fill-opacity:1;fill-rule:evenodd;stroke:#000000;stroke-width:5;stroke-linecap:round;stroke-linejoin:round;stroke-miterlimit:4;stroke-dasharray:none;stroke-opacity:1" />
      <path
         id="path3268"
         d="M 468.71078,696.78849 L 597.00015,649.31132 L 560.63466,369.49906 L 434.36559,421.01684 L 468.71078,696.78849 z"
         style="fill:#ffffff;fill-opacity:1;fill-rule:evenodd;stroke:#000000;stroke-width:5;stroke-linecap:round;stroke-linejoin:round;stroke-miterlimit:4;stroke-dasharray:none;stroke-opacity:1" />
      <path
         id="path3270"
         d="M 231.32493,607.89506 L 231.32493,659.41284 L 464.67017,745.27581 L 464.67017,696.78849 L 231.32493,607.89506 z"
         style="fill:#0000ff;fill-opacity:1;fill-rule:evenodd;stroke:#000000;stroke-width:5;stroke-linecap:round;stroke-linejoin:round;stroke-miterlimit:4;stroke-dasharray:none;stroke-opacity:1" />
      <path
         id="path3272"
         d="M 590.9375,652.34375 L 466.6875,697.8125 L 466.6875,748.3125 L 471.5625,746.28125 C 478.07674,729.43705 493.20941,708.78902 526.28125,699.8125 C 543.03181,695.26597 555.57695,698.97748 565,707.53125 L 590.9375,696.78125 L 590.9375,652.34375 z"
         style="fill:#0000ff;fill-opacity:1;fill-rule:evenodd;stroke:#000000;stroke-width:5;stroke-linecap:round;stroke-linejoin:round;stroke-miterlimit:4;stroke-dasharray:none;stroke-opacity:1" />
      <path
         sodipodi:nodetypes="ccccccccccc"
         id="path3276"
         d="M 348.42876,703.1385 C 331.69076,732.33063 336.89794,773.68973 361.625,792.75 L 359.625,905.875 L 330.3125,920.03125 L 330.3125,984.6875 L 348.74554,976.79911 L 348.74554,923.87946 L 380.52679,908.68304 L 381.84375,799.8125 C 372.74258,792.08013 347.78893,740.27843 372.95922,712.2213 C 363.5487,708.96557 359.62952,706.34519 348.42876,703.1385 z"
         style="fill:#0000ff;fill-opacity:1;fill-rule:evenodd;stroke:#000000;stroke-width:5;stroke-linecap:round;stroke-linejoin:round;stroke-miterlimit:4;stroke-dasharray:none;stroke-opacity:1" />
      <path
         sodipodi:nodetypes="ccccc"
         id="path3283"
         d="M 349.95658,922.96548 L 350.01786,989.22765 L 464.16509,1034.1794 L 464.16509,968.01445 L 349.95658,922.96548 z"
         style="fill:#0000ff;fill-opacity:1;fill-rule:evenodd;stroke:#000000;stroke-width:5;stroke-linecap:round;stroke-linejoin:round;stroke-miterlimit:4;stroke-dasharray:none;stroke-opacity:1" />
      <path
         id="path3285"
         d="M 350.52293,924.07281 L 381.33259,908.92052 L 494.46967,953.87231 L 463.66002,968.51952 L 350.52293,924.07281 z"
         style="fill:#0000ff;fill-opacity:1;fill-rule:evenodd;stroke:#000000;stroke-width:5;stroke-linecap:round;stroke-linejoin:round;stroke-miterlimit:4;stroke-dasharray:none;stroke-opacity:1" />
      <path
         id="path3287"
         d="M 383.35289,800.8342 L 381.33259,910.43575 L 493.45952,954.37739 L 494.97475,842.25045 L 383.35289,800.8342 z"
         style="fill:#0000ff;fill-opacity:1;fill-rule:evenodd;stroke:#000000;stroke-width:5;stroke-linecap:round;stroke-linejoin:round;stroke-miterlimit:4;stroke-dasharray:none;stroke-opacity:1" />
      <path
         sodipodi:nodetypes="ccccc"
         id="path3289"
         d="M 361.42857,795.21933 C 333.24933,766.3958 333.54709,734.98344 347.14286,702.36218 L 242.14286,665.21933 C 228.08268,696.14352 234.38057,724.52295 250.71429,751.6479 L 361.42857,795.21933 z"
         style="fill:#0000ff;fill-opacity:1;fill-rule:evenodd;stroke:#000000;stroke-width:5;stroke-linecap:round;stroke-linejoin:round;stroke-miterlimit:4;stroke-dasharray:none;stroke-opacity:1" />
      <path
         style="fill:#0000ff;fill-opacity:1;fill-rule:evenodd;stroke:#000000;stroke-width:5;stroke-linecap:round;stroke-linejoin:round;stroke-miterlimit:4;stroke-dasharray:none;stroke-opacity:1"
         d="M 491.42857,842.36219 C 463.24933,813.53866 459.97566,781.41201 470,747.36218 L 372.14286,712.36219 C 358.08268,743.28638 357.952,761.66581 380.71429,798.79076 L 491.42857,842.36219 z"
         id="path3291"
         sodipodi:nodetypes="ccccc" />
      <path
         id="path3293"
         d="M 250.71429,753.07647 L 250,860.21933 L 361.42857,903.79075 L 361.42857,794.50504 L 250.71429,753.07647 z"
         style="fill:#0000ff;fill-opacity:1;fill-rule:evenodd;stroke:#000000;stroke-width:5;stroke-linecap:round;stroke-linejoin:round;stroke-miterlimit:4;stroke-dasharray:none;stroke-opacity:1" />
      <path
         id="path3295"
         d="M 250,860.93361 L 217.85714,871.6479 L 331.42857,918.79075 L 360.71429,905.21933 L 250,860.93361 z"
         style="fill:#0000ff;fill-opacity:1;fill-rule:evenodd;stroke:#000000;stroke-width:5;stroke-linecap:round;stroke-linejoin:round;stroke-miterlimit:4;stroke-dasharray:none;stroke-opacity:1" />
      <path
         id="path3297"
         d="M 215.71429,870.93361 L 215,936.6479 L 330,985.93361 L 330,918.79075 L 215.71429,870.93361 z"
         style="fill:#0000ff;fill-opacity:1;fill-rule:evenodd;stroke:#000000;stroke-width:5;stroke-linecap:round;stroke-linejoin:round;stroke-miterlimit:4;stroke-dasharray:none;stroke-opacity:1" />
      <path
         style="fill:#ffff00;fill-opacity:1;fill-rule:evenodd;stroke:#000000;stroke-width:5;stroke-linecap:round;stroke-linejoin:round;stroke-miterlimit:4;stroke-dasharray:none;stroke-opacity:1"
         d="M 439.28125,654.5 L 438.9375,656 C 439.25865,656.11644 439.58818,656.21382 439.90625,656.34375 C 458.70418,664.02232 464.86988,692.46814 453.6875,719.84375 C 445.59373,739.6581 428.84488,754.92102 414.05803,758.14732 L 463.5625,778.0625 C 488.80696,778.43558 511.80464,773.17157 525.71875,745.21875 C 530.86487,728.39934 532.57104,710.81555 520.71875,690.21875 C 494.6867,690.27575 480.02271,677.36436 467.15625,662.375 L 439.28125,654.5 z"
         id="path3450"
         sodipodi:nodetypes="ccsscccccc" />
      <path
         id="path3333"
         d="M 430.28125,654.40625 C 429.80999,654.40048 429.34882,654.41959 428.875,654.4375 C 412.44926,655.05833 394.67945,669.78856 385.59375,692.03125 C 376.46743,714.37341 378.89217,737.41564 390.3125,749.3125 L 395.9375,735.53125 C 389.25527,726.2249 388.28381,710.64136 394.46875,695.5 C 401.46725,678.36698 415.40723,667.22884 427.96875,667.59375 C 430.29496,667.66133 432.57136,668.14132 434.75,669.03125 C 448.69333,674.72683 453.29451,695.81919 445,716.125 C 439.66696,729.18083 430.30609,738.72393 420.59375,742.375 L 414.59375,756.96875 C 429.77438,754.26132 445.36907,740.2081 453.6875,719.84375 C 464.86988,692.46814 458.70418,664.02232 439.90625,656.34375 C 436.82222,655.08399 433.5801,654.44667 430.28125,654.40625 z"
         style="opacity:1;fill:#ffff00;fill-opacity:1;fill-rule:nonzero;stroke:#000000;stroke-width:5;stroke-linecap:round;stroke-linejoin:round;marker:none;marker-start:none;marker-mid:none;marker-end:none;stroke-miterlimit:4;stroke-dasharray:none;stroke-dashoffset:0;stroke-opacity:1;visibility:visible;display:inline;overflow:visible;enable-background:accumulate" />
      <path
         sodipodi:nodetypes="ccccc"
         id="path3326"
         d="M 474.28571,643.79075 L 465.71429,663.79075 C 475.43606,669.65491 496.67395,693.9102 520,689.50504 L 530,669.50504 C 517.14285,652.36219 498.57143,643.79075 474.28571,643.79075 z"
         style="fill:#ffff00;fill-opacity:1;fill-rule:evenodd;stroke:#000000;stroke-width:5;stroke-linecap:round;stroke-linejoin:round;stroke-miterlimit:4;stroke-dasharray:none;stroke-opacity:1" />
      <path
         style="fill:#ffff00;fill-opacity:1;fill-rule:nonzero;stroke:#000000;stroke-width:5;stroke-linecap:round;stroke-linejoin:round;marker:none;marker-start:none;marker-mid:none;marker-end:none;stroke-miterlimit:4;stroke-dasharray:none;stroke-dashoffset:0;stroke-opacity:1;visibility:visible;display:inline;overflow:visible;enable-background:accumulate"
         d="M 445.59401,715.41157 C 440.22626,728.23943 430.86915,737.69413 421.10521,741.47802 C 412.49511,740.46824 404.47848,736.46533 397.03096,735.44145 C 391.11207,727.52339 386.70233,714.72769 393.86656,694.78512 C 401.29892,674.09614 420.83915,662.63679 435.11593,668.32968 C 449.3927,674.02259 454.08688,695.11526 445.59401,715.41157 z"
         id="path3477"
         sodipodi:nodetypes="cccssc" />
      <path
         sodipodi:nodetypes="csscscccc"
         id="path3322"
         d="M 544.28571,672.36218 L 595.71429,559.50504 C 606.74842,535.29125 601.59349,517.80837 591.42857,498.07647 L 567.14286,450.93361 C 556.99549,426.72598 533.43656,396.57952 500,410.93361 C 470.31263,423.6782 466.12829,463.73691 471.42857,492.36218 L 500,559.50504 L 462.85714,639.50504 C 501.46155,634.41124 524.53903,651.05515 544.28571,672.36218 z"
         style="fill:#ffffff;fill-opacity:1;fill-rule:evenodd;stroke:#000000;stroke-width:5;stroke-linecap:round;stroke-linejoin:round;stroke-miterlimit:4;stroke-dasharray:none;stroke-opacity:1" />
      <path
         id="path3328"
         d="M 476.09375,637.15625 C 472.03447,637.18457 467.85273,637.4733 463.5625,638.0625 C 460.21508,638.0625 463.698,643.92385 471.21875,650.90625 L 474.28125,643.78125 C 498.56697,643.78125 517.14285,652.35712 530,669.5 L 525.03125,679.4375 C 535.86766,682.77736 544.66132,683.06538 545.71875,674.5 C 527.34966,650.30112 504.50871,636.95799 476.09375,637.15625 z"
         style="fill:#ffffff;fill-opacity:1;fill-rule:evenodd;stroke:#000000;stroke-width:5;stroke-linecap:round;stroke-linejoin:round;stroke-miterlimit:4;stroke-dasharray:none;stroke-opacity:1" />
      <path
         d="M 358.09906,283.63611 A 7.5761442,10.101525 0 1 1 342.94677,283.63611 A 7.5761442,10.101525 0 1 1 358.09906,283.63611 z"
         sodipodi:ry="10.101525"
         sodipodi:rx="7.5761442"
         sodipodi:cy="283.63611"
         sodipodi:cx="350.52292"
         id="path3384"
         style="opacity:1;fill:#000000;fill-opacity:1;fill-rule:nonzero;stroke:#000000;stroke-width:5;stroke-linecap:round;stroke-linejoin:round;marker:none;marker-start:none;marker-mid:none;marker-end:none;stroke-miterlimit:4;stroke-dasharray:none;stroke-dashoffset:0;stroke-opacity:1;visibility:visible;display:inline;overflow:visible;enable-background:accumulate"
         sodipodi:type="arc" />
      <path
         id="path3386"
         d="M 304.34375,259.625 C 302.62569,261.47734 301.53125,264.29554 301.53125,267.46875 C 301.53125,273.04479 304.91172,277.5625 309.09375,277.5625 C 313.27578,277.5625 316.68751,273.0448 316.6875,267.46875 C 316.6875,265.15834 316.07377,263.04624 315.09375,261.34375 C 313.87287,261.21279 312.65838,261.07923 311.4375,260.9375 C 309.10165,260.46453 306.72413,260.0413 304.34375,259.625 z"
         style="opacity:1;fill:#000000;fill-opacity:1;fill-rule:nonzero;stroke:#000000;stroke-width:5;stroke-linecap:round;stroke-linejoin:round;marker:none;marker-start:none;marker-mid:none;marker-end:none;stroke-miterlimit:4;stroke-dasharray:none;stroke-dashoffset:0;stroke-opacity:1;visibility:visible;display:inline;overflow:visible;enable-background:accumulate" />
      <path
         id="path3499"
         d="M 435.375,43.53125 C 441.6367,45.56014 447.9641,48.381324 454.3125,52.03125 L 488.5625,68.0625 C 490.81208,69.656638 493.04064,71.199226 495.25,72.71875 C 491.42091,58.670174 467.24742,47.193093 435.375,43.53125 z M 390.46875,43.6875 C 360.86101,47.307252 338.1612,57.68551 332.65625,70.5625 L 373.78125,52.46875 C 379.18241,48.692606 384.74704,45.773104 390.46875,43.6875 z"
         style="opacity:1;fill:#ff0000;fill-opacity:1;fill-rule:nonzero;stroke:#000000;stroke-width:5;stroke-linecap:round;stroke-linejoin:round;marker:none;marker-start:none;marker-mid:none;marker-end:none;stroke-miterlimit:4;stroke-dasharray:none;stroke-dashoffset:0;stroke-opacity:1;visibility:visible;display:inline;overflow:visible;enable-background:accumulate" />
      <path
         sodipodi:nodetypes="cccccscccc"
         id="path3517"
         d="M 409.64285,38.321429 C 396.09061,38.344067 383.06793,42.549992 370.9241,51.040179 L 327.84821,71.660715 C 295.37489,87.587151 270.13241,132.51538 267.16517,154.84375 C 259.33776,183.81068 288.83875,216.03048 334.64285,224.75893 C 361.26806,230.29113 416.54576,233.58995 442.76785,229.79018 C 508.61411,220.2486 537.55563,202.96242 548.70535,155.82143 C 542.30772,130.76911 525.05932,82.181999 485.70535,66.633929 L 451.45535,50.602679 C 437.25844,42.440358 423.19509,38.298791 409.64285,38.321429 z"
         style="fill:#ff0000;fill-opacity:1;fill-rule:evenodd;stroke:#000000;stroke-width:5;stroke-linecap:round;stroke-linejoin:round;stroke-miterlimit:4;stroke-dasharray:none;stroke-opacity:1" />
      <path
         sodipodi:nodetypes="ccscccc"
         id="path3510"
         d="M 562.1116,191.21429 C 561.63077,194.61825 558.57296,200.00108 556.91573,204.93862 C 534.84461,222.73316 503.56397,231.69679 461.1741,242.43304 C 391.57113,260.06167 255.66838,247.34583 232.02622,206.12333 C 234.29345,252.95977 271.88489,255.25758 308.58035,261.65179 C 381.12723,272.52458 473.61143,270.05091 525.52678,240.27121 C 542.50019,231.58866 561.88012,212.14689 562.1116,191.21429 z"
         style="fill:#ff0000;fill-opacity:1;fill-rule:evenodd;stroke:#000000;stroke-width:5;stroke-linecap:round;stroke-linejoin:round;stroke-miterlimit:4;stroke-dasharray:none;stroke-opacity:1" />
      <path
         sodipodi:nodetypes="cccc"
         id="path3519"
         d="M 363.57143,53.076467 C 370.07468,67.865966 391.49547,71.540504 412.85714,73.076467 C 443.67555,72.340876 457.9634,61.870029 458.57143,55.219324 C 428.76099,33.158457 397.19089,31.333604 363.57143,53.076467 z"
         style="fill:none;fill-rule:evenodd;stroke:#000000;stroke-width:5;stroke-linecap:butt;stroke-linejoin:miter;stroke-miterlimit:4;stroke-dasharray:none;stroke-opacity:1" />
      <path
         sodipodi:nodetypes="ccccc"
         id="path3521"
         d="M 374.51189,64.76697 C 334.45996,106.65825 309.81837,155.47331 302.14286,214.50504 C 309.76191,218.91627 317.38095,221.33191 325,221.83832 C 327.50383,161.0465 347.70085,112.23225 390.19043,70.481256 C 381.1838,61.960714 378.63409,64.73977 374.51189,64.76697 z"
         style="fill:#ff0000;fill-rule:evenodd;stroke:#000000;stroke-width:5;stroke-linecap:butt;stroke-linejoin:miter;stroke-miterlimit:4;stroke-dasharray:none;stroke-opacity:1" />
      <path
         sodipodi:nodetypes="ccccc"
         id="path3529"
         d="M 402.14286,72.362181 L 401.42857,230.93361 L 420.71429,230.93361 L 419.28571,73.076467 C 408.46952,65.695709 407.10005,71.540345 402.14286,72.362181 z"
         style="fill:#ff0000;fill-rule:evenodd;stroke:#000000;stroke-width:5;stroke-linecap:butt;stroke-linejoin:miter;stroke-miterlimit:4;stroke-dasharray:none;stroke-opacity:1" />
      <path
         sodipodi:nodetypes="cccccc"
         id="path3531"
         d="M 278.57143,444.50504 L 229.28571,606.6479 L 397.14286,670.21933 C 411.38285,655.44852 427.90812,649.05704 447.85714,655.21933 L 411.42857,495.93361 L 278.57143,444.50504 z"
         style="fill:#0000ff;fill-rule:evenodd;stroke:#000000;stroke-width:5;stroke-linecap:butt;stroke-linejoin:miter;stroke-miterlimit:4;stroke-dasharray:none;stroke-opacity:1" />
      <path
         id="path3533"
         d="M 267.85714,354.50504 L 277.14286,428.07647 L 299.28571,435.93361 L 296.42857,363.79075 L 267.85714,354.50504 z"
         style="fill:#0000ff;fill-rule:evenodd;stroke:#000000;stroke-width:5;stroke-linecap:butt;stroke-linejoin:miter;stroke-miterlimit:4;stroke-dasharray:none;stroke-opacity:1" />
      <path
         sodipodi:nodetypes="ccccc"
         id="path3535"
         d="M 396.42857,402.36218 L 391.42857,471.64789 L 410,478.79075 L 425,415.21932 L 396.42857,402.36218 z"
         style="fill:#0000ff;fill-rule:evenodd;stroke:#000000;stroke-width:5;stroke-linecap:butt;stroke-linejoin:miter;stroke-miterlimit:4;stroke-dasharray:none;stroke-opacity:1" />
      <path
         d="M 298.57143,439.86218 A 11.071428,15.357142 0 1 1 276.42857,439.86218 A 11.071428,15.357142 0 1 1 298.57143,439.86218 z"
         sodipodi:ry="15.357142"
         sodipodi:rx="11.071428"
         sodipodi:cy="439.86218"
         sodipodi:cx="287.5"
         id="path3537"
         style="opacity:1;fill:#0000ff;fill-opacity:1;fill-rule:nonzero;stroke:#000000;stroke-width:5;stroke-linecap:round;stroke-linejoin:round;marker:none;marker-start:none;marker-mid:none;marker-end:none;stroke-miterlimit:4;stroke-dasharray:none;stroke-dashoffset:0;stroke-opacity:1;visibility:visible;display:inline;overflow:visible;enable-background:accumulate"
         sodipodi:type="arc" />
      <path
         transform="translate(112.14286,43.571429)"
         sodipodi:type="arc"
         style="opacity:1;fill:#0000ff;fill-opacity:1;fill-rule:nonzero;stroke:#000000;stroke-width:5;stroke-linecap:round;stroke-linejoin:round;marker:none;marker-start:none;marker-mid:none;marker-end:none;stroke-miterlimit:4;stroke-dasharray:none;stroke-dashoffset:0;stroke-opacity:1;visibility:visible;display:inline;overflow:visible;enable-background:accumulate"
         id="path3539"
         sodipodi:cx="287.5"
         sodipodi:cy="439.86218"
         sodipodi:rx="11.071428"
         sodipodi:ry="15.357142"
         d="M 298.57143,439.86218 A 11.071428,15.357142 0 1 1 276.42857,439.86218 A 11.071428,15.357142 0 1 1 298.57143,439.86218 z" />
      <path
         id="path3541"
         d="M 302.85714,498.79075 L 302.14286,595.93361 L 389.28571,628.07647 L 387.85714,529.50504 L 302.85714,498.79075 z"
         style="fill:#0000ff;fill-rule:evenodd;stroke:#000000;stroke-width:5;stroke-linecap:butt;stroke-linejoin:miter;stroke-miterlimit:4;stroke-dasharray:none;stroke-opacity:1" />
      <path
         id="path3543"
         d="M 302.85714,498.79075 L 302.85714,538.07647 L 343.57143,579.50504 L 387.85714,568.07647 L 387.85714,530.93361 L 302.85714,498.79075 z"
         style="fill:#0000ff;fill-rule:evenodd;stroke:#000000;stroke-width:5;stroke-linecap:butt;stroke-linejoin:miter;stroke-miterlimit:4;stroke-dasharray:none;stroke-opacity:1" />
      <path
         sodipodi:nodetypes="ccccc"
         style="fill:#ffff00;fill-opacity:1;fill-rule:evenodd;stroke:#000000;stroke-width:5;stroke-linecap:round;stroke-linejoin:round;stroke-miterlimit:4;stroke-dasharray:none;stroke-opacity:1"
         d="M 397.41334,736.35319 L 391.34191,748.49605 L 415.48645,753.8292 L 419.65218,742.01949 L 397.41334,736.35319 z"
         id="path3565" />
      <path
         sodipodi:nodetypes="ccssccssc"
         id="path3504"
         d="M 550.59737,156.05453 C 559.34339,174.75968 560.20115,173.54828 561.34488,193.84681 C 556.01536,216.10578 502.47059,233.97553 480.63246,241.00495 C 453.83402,249.63103 382.67625,254.077 324.18124,245.94333 C 275.92508,239.23336 237.06632,223.02664 231.9978,201.75317 C 243.16462,175.45397 243.91033,173.77494 265.1774,160.93381 C 263.62796,191.30506 292.26782,219.0413 337.50223,225.47846 C 368.78169,229.92974 423.87036,233.92219 445.62692,230.48961 C 513.61945,219.76228 540.3817,200.8604 550.59737,156.05453 z"
         style="fill:#ff0000;fill-opacity:1;fill-rule:nonzero;stroke:#000000;stroke-width:5;stroke-linecap:round;stroke-linejoin:round;marker:none;marker-start:none;marker-mid:none;marker-end:none;stroke-miterlimit:4;stroke-dasharray:none;stroke-dashoffset:0;stroke-opacity:1;visibility:visible;display:inline;overflow:visible;enable-background:accumulate" />
      <path
         style="fill:#ff0000;fill-rule:evenodd;stroke:#000000;stroke-width:5;stroke-linecap:butt;stroke-linejoin:miter;stroke-miterlimit:4;stroke-dasharray:none;stroke-opacity:1"
         d="M 446.42858,65.93361 C 486.48051,107.82489 509.69353,145.88992 517.36904,204.92165 C 511.00914,209.12351 505.52011,213.90596 495.45236,215.63593 C 492.94853,154.84411 471.7753,113.39889 429.28572,71.647896 C 433.31747,68.060597 437.31809,64.442167 446.42858,65.93361 z"
         id="path3523"
         sodipodi:nodetypes="ccccc" />
      <path
         sodipodi:nodetypes="ccccc"
         id="path3525"
         d="M 370.71429,61.647896 C 298.64381,90.957739 284.67595,139.63512 274.28571,189.50504 C 268.15414,179.9644 262.8774,170.17953 265.71429,158.07647 C 282.4773,100.07508 315.84224,67.769377 363.04757,53.528822 L 370.71429,61.647896 z"
         style="fill:#ff0000;fill-rule:evenodd;stroke:#000000;stroke-width:5;stroke-linecap:butt;stroke-linejoin:miter;stroke-miterlimit:4;stroke-dasharray:none;stroke-opacity:1" />
      <path
         style="fill:#ff0000;fill-rule:evenodd;stroke:#000000;stroke-width:5;stroke-linecap:butt;stroke-linejoin:miter;stroke-miterlimit:4;stroke-dasharray:none;stroke-opacity:1"
         d="M 453.57143,61.647896 C 524.50175,93.238066 527.39857,133.42638 538.53568,181.80257 C 543.79168,174.37605 547.21994,165.12178 548.57143,153.79076 C 531.90547,93.084681 508.32945,72.359455 458.90488,53.076468 C 450.76058,55.933611 453.02014,58.790753 453.57143,61.647896 z"
         id="path3527"
         sodipodi:nodetypes="ccccc" />
      <path
         inkscape:transform-center-y="-12.868145"
         inkscape:transform-center-x="-92.498837"
         style="fill:none;fill-rule:evenodd;stroke:#000000;stroke-width:8;stroke-linecap:round;stroke-linejoin:miter;stroke-miterlimit:4;stroke-dasharray:none;stroke-opacity:1"
         d="M 307.94828,313.50971 C 318.26547,332.58976 333.89652,333.95695 351.61256,328.37415"
         id="path5930"
         sodipodi:nodetypes="cc" />
    </g>
  </g>
</svg>
